<?xml version="1.0" encoding="utf-8"?>
<!-- Generator: Adobe Illustrator 25.2.1, SVG Export Plug-In . SVG Version: 6.00 Build 0)  -->
<svg version="1.1" xmlns="http://www.w3.org/2000/svg" xmlns:xlink="http://www.w3.org/1999/xlink" x="0px" y="0px" width="898.6px"
	 height="459.6px" viewBox="0 0 898.6 459.6" style="enable-background:new 0 0 898.6 459.6;" xml:space="preserve">
<style type="text/css">
	.st0{fill:none;stroke:#000000;stroke-width:2;stroke-miterlimit:10;}
	.st1{fill:none;stroke:#000000;stroke-width:2;stroke-miterlimit:10;stroke-dasharray:17.8749,5.9583;}
	.st2{fill:none;stroke:#000000;stroke-width:2;stroke-miterlimit:10;stroke-dasharray:2.0062,1.0031;}
	.st3{fill:none;stroke:#000000;stroke-miterlimit:10;}
	.st4{fill:none;stroke:#000000;stroke-width:2;stroke-miterlimit:10;stroke-dasharray:1.9949,0.9975;}
	.st5{font-family:'AlegreyaSans-Regular';}
	.st6{font-size:18px;}
	.st7{font-size:16px;}
	.st8{font-size:10px;}
	.st9{font-size:12px;}
	.st10{fill:none;stroke:#000000;stroke-width:2;stroke-miterlimit:10;stroke-dasharray:15.8733,5.2911;}
</style>
<g id="Layer_1">
	<circle class="st0" cx="187" cy="232.9" r="104.6"/>
	<circle class="st0" cx="751.3" cy="182.3" r="28.3"/>
	<line class="st0" x1="11.2" y1="232.9" x2="796.5" y2="232.9"/>
	<g>
		<g>
			<line class="st0" x1="44.8" y1="171.3" x2="53.1" y2="174.9"/>
			<line class="st1" x1="58.5" y1="177.2" x2="318.2" y2="289.8"/>
			<line class="st0" x1="320.9" y1="291" x2="329.2" y2="294.6"/>
		</g>
	</g>
	<g>
		<g>
			<line class="st0" x1="187" y1="387.9" x2="187" y2="386.9"/>
			<line class="st2" x1="187" y1="385.9" x2="187" y2="79.5"/>
			<line class="st0" x1="187" y1="79" x2="187" y2="78"/>
		</g>
	</g>
	<line class="st3" x1="187" y1="43.9" x2="187" y2="73.9"/>
	<line class="st3" x1="187" y1="45" x2="187" y2="75"/>
	<line class="st3" x1="262.2" y1="59.5" x2="250.2" y2="87.1"/>
	<g>
		<g>
			<path class="st3" d="M252.8,65.7c-18.6-7.3-38.7-11.7-59.7-12.4"/>
			<g>
				<path d="M251.6,65.2l-2.5,1.9l0.1,0.1l4.7,0c1.5,0.3,3.1,0.5,4.6,0.8c-1.3-0.9-2.6-1.8-3.9-2.7l-3.4-3.3l-0.1,0L251.6,65.2z"/>
			</g>
			<g>
				<path d="M194.4,53.4l1.6,2.7l-0.1,0.1l-4.4-1.9c-1.5-0.4-3.1-0.8-4.6-1.1c1.5-0.3,3.1-0.6,4.6-0.9l4.5-1.6l0.1,0L194.4,53.4z"/>
			</g>
		</g>
	</g>
	<g>
		<g>
			<polyline class="st3" points="243.3,119 315.9,143.5 330.1,143.5 			"/>
			<g>
				<path d="M244.6,119.4l2.4-2l-0.1-0.1l-4.7,0.2c-1.6-0.2-3.1-0.3-4.7-0.5c1.3,0.8,2.7,1.6,4,2.4l3.6,3.1l0.1,0L244.6,119.4z"/>
			</g>
		</g>
	</g>
	<g>
		<g>
			<polyline class="st3" points="252.8,321.7 291.8,345.5 306,345.5 			"/>
			<g>
				<path d="M254,322.4l2.8-1.4l0-0.1l-4.7-0.8c-1.5-0.5-3-1-4.5-1.5c1.1,1.1,2.3,2.2,3.4,3.3l2.8,3.8l0.1,0L254,322.4z"/>
			</g>
		</g>
	</g>
	<g>
		<g>
			<polyline class="st3" points="335.3,294 357.5,291.9 374,291.9 			"/>
			<g>
				<path d="M336.6,293.9l1.4-2.8l-0.1-0.1l-4.2,2.2c-1.5,0.5-3,1-4.5,1.4c1.6,0.2,3.1,0.4,4.7,0.6l4.6,1.3l0.1-0.1L336.6,293.9z"/>
			</g>
		</g>
	</g>
	<g>
		<g>
			<polyline class="st3" points="485.3,237.5 473.6,250.8 459.7,250.8 			"/>
			<g>
				<path d="M484.4,238.5l0.9,3l0.1,0l1.6-4.5c0.8-1.4,1.5-2.8,2.3-4.1c-1.3,0.9-2.5,1.9-3.8,2.8l-4.2,2.1l0,0.1L484.4,238.5z"/>
			</g>
		</g>
	</g>
	<g>
		<g>
			<polyline class="st3" points="517.1,199.9 498.7,190.7 484.9,192 			"/>
			<g>
				<path d="M515.9,199.3l-2.7,1.7l0.1,0.1l4.7,0.4c1.5,0.4,3,0.8,4.6,1.2c-1.2-1-2.4-2-3.7-3l-3.2-3.5h-0.1L515.9,199.3z"/>
			</g>
		</g>
	</g>
	<line class="st0" x1="125.3" y1="375.1" x2="248.6" y2="90.8"/>
	<line class="st0" x1="12.6" y1="248.6" x2="806.6" y2="177.2"/>
	<g>
		<g>
			<g>
				<path class="st3" d="M572.4,226.8c-0.1-7.5-0.4-14.9-1-22.3"/>
				<g>
					<path d="M572.3,225.5l-2.7-1.6l-0.1,0.1l1.8,4.4c0.4,1.5,0.7,3.1,1.1,4.6c0.3-1.5,0.6-3.1,0.9-4.6l1.7-4.4l0-0.1L572.3,225.5z"
						/>
				</g>
				<g>
					<path d="M571.4,205.8l-2.6,1.8l-0.1-0.1l1.5-4.5c0.2-1.6,0.5-3.1,0.7-4.7c0.4,1.5,0.9,3,1.3,4.5l2,4.3l0,0.1L571.4,205.8z"/>
				</g>
			</g>
		</g>
	</g>
	<g>
		<polyline class="st3" points="572,232.9 572,250.5 586.5,250.5 		"/>
	</g>
	<g>
		<g>
			<line class="st0" x1="747.4" y1="139.1" x2="747.5" y2="140.1"/>
			<line class="st4" x1="747.6" y1="141.1" x2="755" y2="224"/>
			<line class="st0" x1="755.1" y1="224.5" x2="755.2" y2="225.5"/>
		</g>
	</g>
	<line class="st0" x1="752.5" y1="137.3" x2="750.1" y2="227.3"/>
	<line class="st3" x1="744.5" y1="106.6" x2="747" y2="134.4"/>
	<line class="st3" x1="753.3" y1="106.4" x2="752.6" y2="134.2"/>
	<g>
		<g>
			<path class="st3" d="M759.2,114c4,0.5,7.9,1.3,11.6,2.4h14.9"/>
			<g>
				<path d="M760.6,114.2l1.9-2.6l-0.1-0.1l-4.5,1.4c-1.6,0.2-3.1,0.4-4.7,0.6c1.5,0.5,3,0.9,4.5,1.4l4.2,2.1l0.1,0L760.6,114.2z"/>
			</g>
		</g>
	</g>
	<g>
		<g>
			<path class="st3" d="M739,114.6c-4,0.7-7.8,1.8-11.5,3.1"/>
			<g>
				<path d="M737.7,114.9l-1.2,2.9l0.1,0l4.1-2.4c1.5-0.6,2.9-1.1,4.4-1.7c-1.6-0.1-3.1-0.2-4.7-0.3l-4.6-1.1l-0.1,0.1L737.7,114.9z
					"/>
			</g>
		</g>
	</g>
	<text transform="matrix(1 0 0 1 302.3184 85.6539)"><tspan x="0" y="0" class="st5 st6">23.44째</tspan><tspan x="-1.2" y="14" class="st5 st7">EARTH</tspan><tspan x="-14.1" y="28" class="st5 st7">OBLIQUITY</tspan></text>
	<text transform="matrix(1 0 0 1 595.0044 255.584)"><tspan x="0" y="0" class="st5 st6">5.14째</tspan><tspan x="-36.1" y="14" class="st5 st7">LUNAR ORBITAL</tspan><tspan x="-28.1" y="28" class="st5 st7">INCLINATION</tspan></text>
	<text transform="matrix(1 0 0 1 813.8856 261.8777)"><tspan x="0" y="0" class="st5 st6">1.54째</tspan><tspan x="-7" y="14" class="st5 st7">LUNAR</tspan><tspan x="-19.4" y="28" class="st5 st7">OBLIQUITY</tspan><tspan x="-22.3" y="42" class="st5 st7">TO ECLIPTIC</tspan></text>
	<text transform="matrix(1 0 0 1 484.5813 414.4659)" class="st5 st6">NOTE:</text>
	<text transform="matrix(1 0 0 1 537.4119 407.2315)"><tspan x="0" y="0" class="st5 st8">EARTH AND MOON RELATIVE SIZES AND ANGLES ARE TO SCALE.</tspan><tspan x="0" y="10" class="st5 st8">EARTH AND MOON RELATIVE DISTANCE IS NOT TO SCALE.</tspan></text>
	<text transform="matrix(1 0 0 1 335.4308 147.1924)"><tspan x="0" y="0" class="st5 st7">EARTH</tspan><tspan x="7" y="14" class="st5 st7">AXIS</tspan></text>
	<text transform="matrix(1 0 0 1 789.424 92.4442)"><tspan x="0" y="0" class="st5 st7">LUNAR</tspan><tspan x="-12.4" y="14" class="st5 st7">OBLIQUITY</tspan><tspan x="5.4" y="30" class="st5 st6">6.68째</tspan></text>
	<text transform="matrix(0.9175 0.3978 -0.3978 0.9175 245.7498 100.9311)" class="st5 st7">N</text>
	<text transform="matrix(0.9175 0.3978 -0.3978 0.9175 116.2363 371.3208)" class="st5 st7">S</text>
	<text transform="matrix(0.9996 2.687483e-02 -2.687483e-02 0.9996 753.329 145.2255)" class="st5 st9">N</text>
	<text transform="matrix(0.9996 2.687483e-02 -2.687483e-02 0.9996 742.2011 227.103)" class="st5 st9">S</text>
	<text transform="matrix(1 0 0 1 312.3539 350.6889)" class="st5 st7">EARTH</text>
	<text transform="matrix(1 0 0 1 399.9497 296.5281)"><tspan x="0" y="0" class="st5 st7">EARTH</tspan><tspan x="-19.8" y="14" class="st5 st7">EQUATORIAL</tspan><tspan x="0.9" y="28" class="st5 st7">PLANE</tspan></text>
	<text transform="matrix(1 0 0 1 580.5164 145.4792)"><tspan x="0" y="0" class="st5 st7">LUNAR</tspan><tspan x="-19.3" y="14" class="st5 st7">EQUATORIAL</tspan><tspan x="1.4" y="28" class="st5 st7">PLANE</tspan></text>
	<text transform="matrix(1 0 0 1 803.5933 151.7729)"><tspan x="0" y="0" class="st5 st7">LUNAR</tspan><tspan x="7.6" y="14" class="st5 st7">AXIS</tspan></text>
	<text transform="matrix(1 0 0 1 618.5075 115.4092)" class="st5 st7">MOON</text>
	<text transform="matrix(1 0 0 1 338.6863 255.3908)" class="st5 st7">ECLIPTIC PLANE</text>
	<text transform="matrix(0.996 -8.958964e-02 8.958964e-02 0.996 330.888 210.9725)" class="st5 st7">LUNAR ORBIT PLANE</text>
	<path class="st3" d="M258.5,68c8.8,3.8,17.2,8.3,25.2,13.4h12.7"/>
	<g>
		<g>
			<line class="st3" x1="788.5" y1="189.4" x2="788.5" y2="226.8"/>
			<g>
				<path d="M788.5,190.7l2.7,1.6l0.1-0.1l-1.8-4.4c-0.3-1.5-0.7-3.1-1-4.6c-0.3,1.5-0.7,3.1-1,4.6l-1.8,4.4l0,0.1L788.5,190.7z"/>
			</g>
			<g>
				<path d="M788.5,225.5l2.7-1.6l0.1,0.1l-1.8,4.4c-0.3,1.5-0.7,3.1-1,4.6c-0.3-1.5-0.7-3.1-1-4.6l-1.8-4.4l0-0.1L788.5,225.5z"/>
			</g>
		</g>
	</g>
	<polyline class="st3" points="788.5,232.9 788.5,258.3 802.4,258.3 	"/>
	<g>
		<g>
			<line class="st0" x1="707.9" y1="181.1" x2="716.9" y2="181.4"/>
			<line class="st10" x1="722.2" y1="181.5" x2="783" y2="183.1"/>
			<line class="st0" x1="785.6" y1="183.2" x2="794.6" y2="183.4"/>
		</g>
	</g>
	<g>
		<g>
			<polyline class="st3" points="633.3,140.8 647.6,140.8 702.8,177.7 			"/>
			<g>
				<path d="M701.7,177l0.1-3.2l0.1,0l2.7,3.9c1.1,1.1,2.2,2.3,3.3,3.4c-1.5-0.6-2.9-1.1-4.4-1.7l-4.6-1l-0.1-0.1L701.7,177z"/>
			</g>
		</g>
	</g>
	<g>
		<g>
			<polyline class="st3" points="667.1,110.3 681.3,110.3 726.8,157 			"/>
			<g>
				<path d="M725.9,156l0.8-3.1l0.1,0l1.8,4.4c0.8,1.3,1.7,2.7,2.5,4c-1.3-0.9-2.6-1.7-3.9-2.6l-4.3-1.9l0-0.1L725.9,156z"/>
			</g>
		</g>
	</g>
	<g>
		<g>
			<polyline class="st3" points="799.1,147.9 783.8,147.9 758.5,150.5 			"/>
			<g>
				<path d="M759.9,150.4l1.9,2.5l-0.1,0.1l-4.6-1.3c-1.6-0.2-3.1-0.4-4.7-0.5c1.5-0.5,3-1,4.5-1.5l4.2-2.2l0.1,0L759.9,150.4z"/>
			</g>
		</g>
	</g>
</g>
<g id="Layer_2">
</g>
</svg>
